<svg aria-hidden="true" style="position:absolute;width:0;height:0;overflow:hidden" xmlns="http://www.w3.org/2000/svg"><defs><symbol id="icon-logo_1" viewBox="0 0 127 32"><path d="M3.137 29.68h27.36V2.32H3.137v27.36zm22.094-16.313H19.45V7.586h5.781v5.781zM8.402 7.586h5.785v11.046h11.044v5.781H8.402V7.585zM48.314 2.32a13.678 13.678 0 0 0-9.672 23.352 13.683 13.683 0 0 0 14.908 2.966A13.677 13.677 0 0 0 61.995 16a13.695 13.695 0 0 0-13.68-13.68zm0 22.094A8.413 8.413 0 1 1 56.727 16a8.427 8.427 0 0 1-8.414 8.414zM110.947 2.32a13.683 13.683 0 0 0-12.64 8.444 13.674 13.674 0 0 0 2.965 14.909 13.682 13.682 0 0 0 21.048-2.072 13.676 13.676 0 0 0 2.306-7.6c-.004-3.627-1.446-7.104-4.011-9.668s-6.042-4.007-9.668-4.012zm0 22.094a8.413 8.413 0 1 1 8.413-8.413 8.424 8.424 0 0 1-8.413 8.413zM79.63 2.32a13.678 13.678 0 0 0-9.672 23.352 13.683 13.683 0 0 0 14.908 2.966A13.677 13.677 0 0 0 93.31 16 13.695 13.695 0 0 0 79.63 2.32zm0 22.094a8.414 8.414 0 1 1 7.986-11.047h-7.987v5.265h7.987a8.43 8.43 0 0 1-7.987 5.782z"/></symbol><symbol id="icon-logo_2" viewBox="0 0 45 32"><path fill="#152c4f" style="fill:var(--color1, #152c4f)" d="M3.663 29.006v-6.519H2.594v6.519h1.069zM4.318 26.833c0 1.332.894 2.278 2.252 2.278s2.252-.946 2.252-2.278-.894-2.278-2.252-2.278-2.252.946-2.252 2.278zm1.077 0c0-.78.464-1.323 1.174-1.323s1.174.543 1.174 1.323c0 .771-.464 1.323-1.174 1.323s-1.174-.552-1.174-1.323zM9.18 26.745c0 1.262.815 2.173 2.033 2.173.631 0 1.174-.254 1.446-.675v.736c0 .71-.447 1.183-1.191 1.183-.666 0-1.121-.324-1.183-.894H9.207c.14 1.13 1.007 1.866 2.199 1.866 1.402 0 2.295-.92 2.295-2.348v-4.11h-.946l-.061.587c-.263-.456-.806-.727-1.446-.727-1.235 0-2.068.938-2.068 2.208zm1.087-.026c0-.719.456-1.244 1.13-1.244.736 0 1.226.535 1.226 1.244 0 .719-.491 1.271-1.226 1.271-.666 0-1.13-.543-1.13-1.271zM14.23 26.833c0 1.332.894 2.278 2.252 2.278s2.252-.946 2.252-2.278-.894-2.278-2.252-2.278-2.252.946-2.252 2.278zm1.077 0c0-.78.464-1.323 1.174-1.323s1.174.543 1.174 1.323c0 .771-.464 1.323-1.174 1.323s-1.174-.552-1.174-1.323zM19.89 23.792a.636.636 0 1 0 0-1.271.623.623 0 0 0-.631.631c0 .359.272.64.631.64zm-.535 5.214h1.069v-4.329h-1.069v4.329zM21.36 31.012h1.043V28.41c.272.447.859.71 1.507.71 1.279 0 2.041-.981 2.024-2.331-.026-1.358-.806-2.243-2.033-2.243-.657 0-1.253.289-1.516.789l-.061-.657h-.964v6.335zm1.087-4.171c0-.78.473-1.323 1.218-1.323s1.191.552 1.191 1.323-.447 1.314-1.191 1.314c-.745 0-1.218-.535-1.218-1.314zM26.205 27.709c.035.859.701 1.411 1.735 1.411 1.016 0 1.708-.543 1.708-1.384 0-.622-.385-1.043-1.095-1.218l-.762-.184c-.324-.088-.543-.201-.543-.482 0-.298.237-.508.622-.508.403 0 .666.228.666.605h.972c-.035-.859-.675-1.402-1.612-1.402-.929 0-1.621.543-1.621 1.367 0 .561.324 1.025 1.156 1.244l.753.193c.28.079.456.21.456.456 0 .342-.324.499-.718.499-.473 0-.745-.219-.745-.596h-.972zM31.865 29.12c.587 0 1.148-.272 1.402-.675l.07.561h.999v-4.329h-1.069v2.27c0 .78-.298 1.218-.999 1.218-.543 0-.92-.263-.92-1.157v-2.331h-1.069v2.708c0 1.034.561 1.735 1.586 1.735zM36.348 29.006v-2.489c0-.701.412-1.034.92-1.034s.841.324.841.938v2.585h1.043v-2.48c0-.71.403-1.043.911-1.043.517 0 .85.324.85.938v2.585h1.034v-2.83c0-.999-.552-1.63-1.603-1.63-.657 0-1.174.315-1.384.824-.237-.508-.71-.824-1.428-.824-.508 0-.964.237-1.218.622l-.053-.491h-.981v4.329h1.069z"/><path fill="#1a4688" style="fill:var(--color2, #1a4688)" d="M19.67 16.585c-1.408 2.534-4.275 3.74-7.174 3.74H.865c12.108-1.514 20.541-7.568 21.622-16 1.081 8.432 9.513 14.486 21.622 16H32.478c-2.899 0-5.766-1.206-7.174-3.74-1.524-2.743-2.495-5.846-2.816-9.233-.321 3.387-1.292 6.491-2.816 9.233z"/><path fill="#7fb5e6" style="fill:var(--color3, #7fb5e6)" d="M13.018 15.689a25.94 25.94 0 0 1-2.142 1.076 12.668 12.668 0 0 1-.457-4.542c.165-2.03.817-3.986 1.898-5.697s2.558-3.122 4.299-4.109S20.31.897 22.301.866c1.991-.031 3.959.441 5.729 1.373s3.288 2.297 4.419 3.973a12.555 12.555 0 0 1 2.066 5.635c.184 1.655.04 3.327-.42 4.918a26.257 26.257 0 0 1-2.142-1.076c.286-1.162.367-2.372.233-3.57-.182-1.632-.754-3.193-1.666-4.544s-2.136-2.452-3.564-3.204-3.014-1.132-4.62-1.107c-1.606.025-3.18.455-4.585 1.251s-2.595 1.934-3.467 3.314-1.397 2.957-1.53 4.594c-.089 1.1 0 2.204.262 3.267z"/></symbol><symbol id="icon-logo_3" viewBox="0 0 112 32"><path fill="#43505c" style="fill:var(--color4, #43505c)" d="M37.41 20.364V7.919h-2.041v12.445h2.041zM38.659 16.215c0 2.543 1.706 4.349 4.299 4.349s4.299-1.807 4.299-4.349c0-2.543-1.706-4.349-4.299-4.349s-4.299 1.807-4.299 4.349zm2.058 0c0-1.489.887-2.526 2.241-2.526s2.241 1.037 2.241 2.526c0 1.472-.887 2.526-2.241 2.526s-2.241-1.054-2.241-2.526zM47.943 16.048c0 2.409 1.556 4.148 3.881 4.148 1.204 0 2.241-.485 2.76-1.288v1.405c0 1.355-.853 2.258-2.275 2.258-1.271 0-2.141-.619-2.258-1.706h-2.057c.268 2.158 1.924 3.563 4.199 3.563 2.676 0 4.383-1.756 4.383-4.483V12.1h-1.807l-.117 1.121c-.502-.87-1.539-1.388-2.76-1.388-2.359 0-3.948 1.79-3.948 4.215zm2.075-.05c0-1.372.87-2.375 2.158-2.375 1.405 0 2.342 1.02 2.342 2.375 0 1.372-.937 2.425-2.342 2.425-1.271 0-2.158-1.037-2.158-2.425zM57.585 16.215c0 2.543 1.706 4.349 4.299 4.349s4.299-1.807 4.299-4.349c0-2.543-1.706-4.349-4.299-4.349s-4.299 1.807-4.299 4.349zm2.057 0c0-1.489.887-2.526 2.241-2.526s2.241 1.037 2.241 2.526c0 1.472-.887 2.526-2.241 2.526s-2.241-1.054-2.241-2.526zM68.391 10.411c.669 0 1.221-.535 1.221-1.221 0-.669-.552-1.204-1.221-1.204-.686 0-1.204.535-1.204 1.204 0 .686.519 1.221 1.204 1.221zm-1.02 9.953h2.041v-8.263h-2.041v8.263zM71.199 24.194h1.991v-4.968c.519.853 1.639 1.355 2.877 1.355 2.442 0 3.897-1.873 3.864-4.449-.05-2.593-1.539-4.282-3.881-4.282-1.255 0-2.392.552-2.894 1.505l-.117-1.255h-1.84v12.094zm2.074-7.962c0-1.489.903-2.526 2.325-2.526s2.275 1.054 2.275 2.526c0 1.472-.853 2.509-2.275 2.509s-2.325-1.02-2.325-2.509zM80.449 17.888c.067 1.639 1.338 2.693 3.312 2.693 1.94 0 3.262-1.037 3.262-2.643 0-1.188-.736-1.991-2.091-2.325l-1.455-.351c-.619-.167-1.037-.385-1.037-.92 0-.569.452-.97 1.188-.97.769 0 1.271.435 1.271 1.154h1.857c-.067-1.639-1.288-2.676-3.078-2.676-1.773 0-3.095 1.037-3.095 2.609 0 1.071.619 1.957 2.208 2.375l1.439.368c.535.151.87.401.87.87 0 .652-.619.953-1.372.953-.903 0-1.422-.418-1.422-1.137h-1.857zM91.256 20.581c1.121 0 2.191-.519 2.676-1.288l.134 1.071h1.907v-8.263h-2.041v4.332c0 1.489-.569 2.325-1.907 2.325-1.037 0-1.756-.502-1.756-2.208v-4.449h-2.041v5.169c0 1.974 1.071 3.312 3.028 3.312zM99.815 20.364v-4.751c0-1.338.786-1.974 1.756-1.974s1.606.619 1.606 1.79v4.935h1.991V15.63c0-1.355.769-1.991 1.74-1.991.987 0 1.623.619 1.623 1.79v4.935h1.974v-5.403c0-1.907-1.054-3.111-3.061-3.111-1.255 0-2.241.602-2.643 1.572-.452-.97-1.355-1.572-2.727-1.572-.97 0-1.84.452-2.325 1.188l-.1-.937h-1.873v8.263h2.041z"/><path fill="#8e98a1" style="fill:var(--color5, #8e98a1)" d="M94.922 27.748a.574.574 0 0 0 .568-.56.575.575 0 0 0-.568-.568.577.577 0 0 0-.576.568c0 .304.264.56.576.56zM96.077 25.684c0 1.224.752 2.048 1.848 2.048.944 0 1.664-.568 1.816-1.416h-.72c-.136.472-.552.752-1.048.752-.704 0-1.152-.544-1.152-1.392 0-.864.472-1.392 1.168-1.392.48 0 .896.256 1.024.76h.72c-.128-.856-.8-1.432-1.736-1.432-1.136 0-1.92.84-1.92 2.072zM100.025 25.676c0 1.176.8 2.056 2 2.056s2-.88 2-2.056c0-1.176-.8-2.056-2-2.056s-2 .88-2 2.056zm.76 0c0-.8.488-1.384 1.24-1.384s1.24.584 1.24 1.384c0 .8-.488 1.384-1.24 1.384s-1.24-.584-1.24-1.384zM105.419 27.644v-2.352c0-.616.384-1.016.944-1.016.536 0 .872.344.872.96v2.408h.736V25.3c0-.624.376-1.024.944-1.024.528 0 .864.344.864.96v2.408h.728v-2.568c0-.904-.528-1.456-1.424-1.456-.608 0-1.08.296-1.272.776-.2-.48-.64-.776-1.28-.776-.488 0-.92.224-1.136.608l-.056-.496h-.672v3.912h.752z"/><path fill="#43505c" style="fill:var(--color4, #43505c)" d="m1.455 16.317.001-.146.003-.146.004-.146.006-.146.007-.146.009-.146.01-.146.012-.146.013-.146.015-.146.016-.145.018-.145.019-.145.021-.145.022-.145.024-.145.025-.145.027-.144.028-.144.03-.144.031-.144.033-.144.034-.143.036-.143.037-.143.039-.142.04-.142.042-.142.043-.141.045-.141.046-.141.048-.14.049-.14.05-.139.052-.139.053-.139.055-.138.056-.138.058-.137.059-.137.06-.136.062-.136.063-.135.065-.134.066-.134.068-.133.069-.133.07-.132.072-.131.073-.131.074-.13.076-.129.077-.129.079-.128.08-.127.081-.126.083-.126.084-.125.085-.124.086-.123.088-.123.089-.122.09-.121.092-.12.093-.119.094-.118.095-.118.097-.117.098-.116.099-.115.1-.114.101-.113.103-.112.104-.111.105-.11.106-.109.107-.108.109-.107.11-.106.111-.105.112-.104.113-.103.114-.102.115-.101.116-.1.117-.099.118-.097.119-.096.12-.095.122-.094.122-.093.124-.092.125-.091.125-.089.126-.088.127-.087.128-.086.129-.085.13-.083.131-.082.132-.081.133-.08.134-.078.135-.077.135-.076.136-.074.137-.073.138-.072.139-.07.139-.069.14-.068.141-.066.142-.065.142-.064.143-.062.144-.061.144-.06.145-.058.146-.057.146-.055.147-.054.148-.053.148-.051.149-.05.149-.048.15-.047.15-.045.151-.044.151-.042.152-.041.152-.039.153-.038.153-.036.154-.035.154-.034.155-.032.155-.03.155-.029.156-.027.156-.026.156-.024.157-.023.157-.021.157-.02.158-.018.158-.017.158-.015.158-.014.158-.012.159-.011.853-.049.049 4.108h.146l.118.001.118.002.118.003.118.004.118.006.118.007.118.008.118.009.118.01.118.011.118.013.118.014.118.015.117.016.117.017.117.018.117.02.117.021.117.022.117.023.116.024.116.025.116.027.116.028.116.029.115.03.115.031.115.032.115.033.114.035.114.036.114.037.113.038.113.039.113.04.112.041.112.042.112.044.111.045.111.046.11.047.11.048.11.049.109.05.109.051.108.052.108.054.107.055.107.056.106.057.106.058.105.059.105.06.104.061.103.062.103.063.102.064.102.065.101.066.1.067.1.068.099.069.098.07.098.071.097.072.096.073.096.074.095.075.094.076.094.077.093.078.092.079.091.08.09.081.09.082.089.083.088.084.087.085.086.086.086.086.085.087.084.088.083.089.082.09.081.091.08.092.079.092.079.093.078.094.077.095.076.096.075.096.074.097.073.098.072.099.071.1.07.1.069.101.068.102.067.102.066.103.065.104.064.104.063.105.062.106.061.107.06.107.059.108.058.108.056.109.055.11.054.11.053.111.052.111.051.112.05.113.049.113.047.114.046.114.045.115.044.115.043.116.042.116.041.117.039.117.038.118.037.118.036.118.035.119.033.119.032.12.031.12.03.12.029.121.027.121.026.121.025.122.024.122.022.122.021.122.02.123.019.123.017.123.016.123.015.124.014.124.012.124.011.124.01.124.009.125.007.125.006.125.005.125.003.125.002.125.001.125v.125l-.002.125-.003.125-.004.125-.006.125-.007.125-.008.125-.009.125-.011.125-.012.125-.013.125-.015.125-.016.125-.017.125-.018.125-.02.125-.021.125-.022.125-.024.124-.025.124-.026.124-.027.124-.029.124-.03.123-.031.123-.033.123-.034.123-.035.122-.036.122-.038.122-.039.121-.04.121-.041.121-.043.12-.044.12-.045.12-.046.119-.048.119-.049.118-.05.118-.051.118-.053.117-.054.117-.055.116-.056.116-.058.115-.059.115-.06.114-.061.114-.062.113-.064.113-.065.112-.066.111-.067.111-.068.11-.069.11-.071.109-.072.108-.073.108-.074.107-.075.106-.076.106-.077.105-.078.104-.08.104-.081.103-.082.102-.083.101-.084.1-.085.1-.086.099-.087.098-.088.097-.089.096-.09.096-.091.095-.092.094-.093.093-.094.092-.095.091-.096.09-.097.09-.098.089-.099.088-.1.087-.101.086-.102.085-.103.084-.104.083-.105.082-.106.081-.106.08-.107.079-.108.078-.109.077-.11.076-.111.075-.111.074-.112.073-.113.072-.114.071-.115.07-.115.068-.116.067-.117.066-.118.065-.118.064-.119.063-.12.062-.12.061-.121.059-.122.058-.122.057-.123.056-.124.055-.124.053-.125.052-.125.051-.126.05-.127.049-.127.047-.128.046-.128.045-.129.044-.129.043-.13.041-.13.04-.131.039-.131.037-.132.036-.132.035-.133.034-.133.032-.133.031-.134.03-.134.029-.134.027-.135.026-.135.025-.135.023-.136.022-.136.021-.136.019-.136.018-.137.017-.137.015-.137.014-.137.013-.137.011-.138.01-.138.009-.138.007-.138.006-.138.005-.138.003-.138.002h-.139l-.139-.001-.139-.002-.139-.004-.139-.005-.139-.006-.139-.008-.139-.009-.139-.01-.139-.012-.139-.013-.138-.014-.138-.016-.138-.017-.138-.019-.138-.02-.138-.021-.138-.023-.138-.024-.137-.025-.137-.027-.137-.028-.137-.03-.136-.031-.136-.032-.136-.034-.136-.035-.135-.036-.135-.038-.135-.039-.134-.04-.134-.042-.134-.043-.133-.044-.133-.046-.132-.047-.132-.048-.132-.05-.131-.051-.131-.052-.13-.053-.13-.055-.129-.056-.129-.057-.128-.059-.128-.06-.127-.061-.126-.062-.126-.064-.125-.065-.125-.066-.124-.067-.123-.069-.123-.07-.122-.071-.121-.072-.121-.074-.12-.075-.119-.076-.118-.077-.118-.078-.117-.08-.116-.081-.115-.082-.115-.083-.114-.084-.113-.086-.112-.087-.111-.088-.111-.089-.11-.09-.109-.091-.108-.092-.107-.093-.106-.094-.105-.096-.104-.096-.103-.098-.102-.099-.101-.1-.1-.101-.099-.102-.098-.103-.097-.104-.096-.105-.095-.106-.094-.107-.093-.108-.092-.109-.091-.11-.09-.111-.089-.111-.088-.112-.087-.113-.086-.114-.084-.115-.083-.116-.082-.117-.081-.118-.08-.119-.079-.119-.077-.12-.076-.121-.075-.122-.074-.123-.073-.123-.071-.124-.07-.125-.069-.126-.068-.126-.066-.127-.065-.128-.064-.128-.062-.129-.061-.13-.06-.13-.058-.131-.057-.132-.056-.132-.054-.133-.053-.134-.052-.134-.05-.135-.049-.135L2.231 21l-.046-.136-.045-.137-.044-.137-.042-.138-.041-.138-.039-.139-.038-.139-.037-.14-.035-.14-.034-.14-.032-.141-.031-.141-.029-.141-.028-.142-.027-.142-.025-.142-.024-.143-.022-.143-.021-.143-.019-.144-.018-.144-.016-.144-.015-.144-.013-.144-.012-.145-.01-.145-.009-.145-.008-.145-.006-.145-.005-.145-.003-.146-.002-.146v-.146zM15.548 5.649l-.033-2.8-.031.003-.145.015-.144.017-.144.018-.144.02-.143.021-.143.022-.143.024-.143.025-.142.026-.142.028-.141.029-.141.031-.141.032-.14.033-.14.035-.139.036-.139.037-.139.039-.138.04-.138.042-.137.043-.137.044-.136.045-.136.047-.135.048-.134.049-.134.051-.133.052-.133.053-.132.055-.132.056-.131.057-.13.058-.13.059-.129.061-.128.062-.127.063-.127.064-.126.066-.125.067-.124.068-.124.069-.123.07-.122.071-.122.073-.12.074-.12.075-.119.076-.118.077-.117.078-.116.079-.116.081-.115.082-.114.083-.113.084-.112.085-.111.086-.11.087-.109.088-.108.089-.107.09-.106.091-.105.092-.104.093-.103.094-.102.095-.101.096-.1.097-.099.098-.098.099-.097.1-.096.1-.095.101-.094.102-.093.103-.091.104-.091.105-.089.106-.088.107-.087.107-.086.108-.085.109-.084.11-.082.11-.081.111-.08.112-.079.113-.078.113-.077.114-.075.115-.074.115-.073.116-.072.117-.07.117-.069.118-.068.119-.067.119-.065.12-.064.12-.063.121-.062.122-.06.122-.059.123-.058.123-.057.124-.055.124-.054.125-.053.125-.051.125-.05.126-.049.126-.047.127-.046.127-.045.127-.043.128-.042.128-.041.129-.039.129-.038.129-.037.129-.035.13-.034.13-.033.13-.031.131-.03.131-.029.131-.027.131-.026.131-.024.132-.023.132-.022.132-.02.132-.019.132-.018.132-.016.132-.015.133-.014.133-.012.133-.011.133-.009.133-.008.133-.007.133-.005.133-.004.133-.003.133-.001.133v.133l.001.133.003.133.004.132.006.132.007.132.008.132.01.132.011.132.012.131.014.131.015.131.016.131.018.131.019.13.02.13.022.13.023.13.024.129.026.129.027.129.028.128.029.128.031.128.032.127.033.127.035.126.036.126.037.126.038.125.04.125.041.124.042.124.043.123.045.123.046.122.047.122.048.121.05.121.051.12.052.12.053.119.054.119.056.118.057.117.058.117.059.116.06.115.061.115.063.114.064.113.065.113.066.112.067.111.068.111.069.11.07.109.071.108.072.108.073.107.075.106.076.105.077.105.078.104.079.103.08.102.081.101.082.1.083.1.084.099.085.098.086.097.087.096.087.095.088.094.089.093.09.092.091.091.092.09.093.09.094.088.095.088.095.087.096.086.097.085.098.084.099.083.099.082.1.081.101.079.102.079.102.078.103.076.104.075.105.074.105.073.106.072.107.071.107.07.108.069.109.068.109.067.11.066.111.064.111.063.112.062.112.061.113.06.113.059.114.058.115.056.115.055.116.054.116.053.116.052.117.051.117.05.118.048.118.047.119.046.119.045.119.044.12.042.12.041.121.04.121.039.121.038.122.036.122.035.122.034.122.033.123.032.123.03.123.029.123.028.124.027.124.025.124.024.124.023.124.022.124.02.125.019.125.018.125.017.125.016.125.014.125.013.125.012.125.011.125.009.125.008.125.007.125.006.125.005.125.003.125.002.125.001h.125l.125-.002.125-.003.125-.004.125-.005.125-.007.124-.008.124-.009.124-.01.124-.011.124-.013.124-.014.123-.015.123-.016.123-.017.123-.019.122-.02.122-.021.122-.022.122-.023.121-.024.121-.026.121-.027.12-.028.12-.029.119-.03.119-.032.119-.033.118-.034.118-.035.118-.036.117-.037.117-.038.116-.039.116-.041.115-.042.115-.043.114-.044.114-.045.113-.046.113-.047.112-.048.111-.049.111-.05.11-.051.11-.052.109-.053.109-.055.108-.056.107-.057.107-.058.106-.059.105-.06.105-.061.104-.062.103-.063.103-.064.102-.064.101-.066.1-.066.1-.067.099-.068.098-.069.097-.07.097-.071.096-.072.095-.073.094-.074.093-.075.093-.076.092-.076.091-.077.09-.078.089-.079.088-.08.087-.081.087-.081.086-.082.085-.083.084-.084.083-.084.082-.085.081-.086.08-.087.079-.088.078-.088.077-.089.076-.09.076-.09.074-.091.073-.092.073-.092.072-.093.071-.094.069-.094.069-.095.068-.096.066-.096.066-.097.064-.097.063-.098.062-.099.061-.099.06-.099.059-.1.058-.1.057-.101.056-.102.055-.102.054-.103.053-.103.052-.103.051-.104.05-.104.048-.105.047-.105.046-.106.045-.106.044-.106.043-.107.042-.107.041-.108.039-.108.038-.108.037-.108.036-.109.035-.109.034-.11.033-.109.032-.11.03-.11.029-.11.028-.11.027-.111.026-.111.025-.111.023-.111.022-.111.021-.112.02-.111.019-.112.018-.112.017-.112.015-.112.014-.112.013-.113.012-.112.011-.112.01-.112.008-.113.007-.112.006-.113.005-.113.004-.112.003-.112.001-.113v-.112l-.001-.112-.002-.112-.003-.112-.004-.112-.005-.112-.007-.112-.008-.112-.009-.111-.01-.111-.011-.111-.012-.111-.013-.111-.014-.111-.016-.11-.017-.11-.018-.11-.019-.109-.02-.109-.021-.109-.022-.109-.023-.109-.024-.108-.026-.108-.027-.107-.028-.107-.029-.107-.03-.107-.031-.106-.032-.106-.033-.105-.034-.105-.035-.104-.036-.104-.037-.104-.038-.104-.039-.103-.041-.103-.041-.102-.042-.101-.043-.101-.045-.101-.045-.1-.047-.1-.047-.099-.048-.098-.05-.098-.05-.097-.051-.097-.052-.096-.053-.095-.054-.095-.055-.094-.056-.094-.057-.093-.058-.093-.059-.092-.06-.092-.061-.091-.061-.09-.063-.09-.063-.089-.064-.088-.065-.087-.066-.087-.067-.086-.068-.085-.068-.085-.069-.084-.07-.083-.071-.082-.072-.082-.072-.081-.073-.08-.074-.079-.075-.078-.076-.078-.076-.077-.077-.076-.078-.075-.079-.075-.079-.074-.08-.073-.081-.072-.081-.071-.082-.07-.083-.07-.083-.069-.084-.068-.085-.067-.085-.066-.086-.065-.087-.065-.087-.063-.088-.063-.088-.062-.089-.061-.09-.06-.09-.059-.091-.058-.091-.057-.092-.056-.092-.055-.093-.054-.093-.053-.094-.053-.094-.051-.095-.051-.095-.05-.095-.049-.096-.048-.096-.047-.097-.046-.097-.045-.097-.044-.098-.043-.101-.043-.095-.039-.099-.04-.099-.039-.1-.038-.1-.037-.1-.036-.1-.035-.101-.034-.101-.033-.101-.032-.102-.031-.102-.03-.102-.029-.102-.028-.102-.027-.103-.026-.103-.025-.103-.023-.103-.023-.103-.021-.104-.02-.104-.019-.104-.018L18.694 7l-.104-.016-.104-.015-.104-.014-.104-.013-.104-.012-.104-.011-.104-.01-.105-.009-.105-.008-.105-.007-.104-.006-.104-.005-.105-.004-.104-.003-.104-.002-.104-.001H16.9l.033 2.78h.135l.076.001.076.002.076.003.076.004.076.004.076.005.076.006.076.006.076.007.076.008.076.009.076.01.076.01.076.011.076.012.076.013.076.013.076.014.076.015.076.016.076.016.076.017.076.018.076.019.075.019.075.02.075.021.075.022.075.022.075.023.074.024.074.025.074.026.074.026.074.027.073.028.073.028.073.029.073.03.072.031.072.031.072.032.072.033.071.034.071.034.071.035.07.036.07.037.07.037.069.038.069.039.069.039.068.04.068.041.068.042.067.042.067.043.067.044.066.044.066.045.065.046.065.046.064.047.064.048.064.048.063.049.063.05.062.05.062.051.061.052.061.052.06.053.06.054.059.054.059.055.058.056.058.056.057.057.057.057.056.058.056.058.055.059.054.06.054.06.053.061.053.061.052.062.052.063.051.063.05.064.05.064.049.065.048.065.048.066.047.066.046.067.046.067.045.068.044.068.044.069.043.069.042.07.042.07.041.071.04.071.04.072.039.072.038.072.038.073.037.073.036.074.035.074.035.075.034.075.033.075.032.076.032.076.031.076.03.077.029.077.029.078.028.078.027.078.026.079.025.079.025.079.024.079.023.08.022.08.021.08.021.081.02.081.019.081.018.081.017.082.016.082.016.082.015.082.014.082.013.083.012.083.011.083.011.083.01.083.009.084.008.084.007.084.006.084.005.084.005.084.004.084.003.084.002.084.001.085v.085l-.001.085-.002.085-.002.085-.003.085-.004.085-.005.085-.006.085-.007.085-.008.085-.009.085-.009.085-.01.085-.011.085-.012.085-.013.085-.014.085-.015.084-.016.084-.016.084-.017.084-.018.084-.019.084-.02.084-.021.084-.022.084-.023.083-.023.083-.024.083-.025.083-.026.083-.027.083-.028.082-.029.082-.03.082-.03.082-.031.081-.032.081-.033.081-.034.081-.035.08-.036.08-.036.08-.037.079-.038.079-.039.079-.04.078-.041.078-.041.078-.042.077-.043.077-.044.077-.045.076-.046.076-.046.076-.047.075-.048.075-.049.074-.05.074-.05.073-.051.073-.052.073-.053.072-.054.072-.054.071-.055.071-.056.07-.057.07-.057.069-.058.069-.059.068-.06.068-.06.067-.061.066-.062.066-.062.065-.063.065-.064.064-.065.064-.065.063-.066.062-.067.062-.067.061-.068.061-.069.06-.069.059-.07.059-.071.058-.071.057-.072.057-.073.056-.073.055-.074.055-.075.054-.075.053-.076.052-.076.052-.077.051-.077.05-.078.05-.079.049-.079.048-.08.047-.08.047-.081.046-.081.045-.082.044-.082.044-.083.043-.083.042-.084.041-.084.041-.085.04-.085.039-.086.038-.086.037-.087.036-.087.036-.087.035-.088.034-.088.033-.089.032-.089.031-.089.03-.09.03-.09.029-.09.028-.091.027-.091.026-.091.025-.092.024-.092.023-.092.023-.093.022-.093.021-.093.02-.094.019-.094.018-.094.017-.094.016-.095.015-.095.014-.095.014-.095.013-.095.012-.096.011-.096.01-.096.009-.096.008-.096.007-.096.006-.096.005-.096.004-.097.003-.097.002-.097.001h-.097l-.097-.001-.097-.002-.097-.002-.097-.003-.097-.004-.097-.005-.097-.006-.097-.007-.097-.008-.097-.009-.097-.01-.097-.011-.097-.012-.097-.013-.097-.014-.097-.015-.097-.016-.097-.017-.096-.018-.096-.019-.096-.02-.096-.021-.096-.022-.096-.023-.096-.024-.095-.025-.095-.026-.095-.026-.095-.027-.095-.028-.094-.029-.094-.03-.094-.031-.094-.032-.093-.033-.093-.034-.093-.035-.092-.036-.092-.037-.092-.038-.091-.039-.091-.04-.091-.041-.09-.041-.09-.042-.09-.043-.089-.044-.089-.045-.088-.046-.088-.047-.088-.048-.087-.049-.087-.05-.086-.05-.086-.051-.085-.052-.085-.053-.084-.054-.084-.055-.083-.056-.083-.056-.082-.057-.082-.058-.081-.059-.081-.06-.08-.061-.079-.062-.079-.062-.078-.063-.078-.064-.077-.065-.076-.066-.076-.066-.075-.067-.075-.068-.074-.069-.073-.069-.073-.07-.072-.071-.071-.072-.07-.073-.07-.073-.069-.074-.068-.075-.068-.075-.067-.076-.066-.077-.065-.077-.065-.078-.064-.079-.063-.079-.062-.08-.062-.081-.061-.082-.06-.082-.059-.083-.058-.083-.058-.084-.057-.085-.056-.085-.055-.086-.054-.086-.053-.087-.052-.088-.052-.088-.051-.089-.05-.089-.049-.09-.048-.09-.047-.091-.046-.091-.045-.092-.044-.092-.043-.093-.043-.093-.042-.094-.041-.094-.04-.095-.039-.095-.038-.096-.037-.096-.036-.096-.035-.097-.034-.097-.033-.098-.032-.098-.031-.098-.03-.099-.029-.099-.028-.099-.027-.1-.026-.1-.025-.1-.024-.101-.023-.101-.022-.101-.021-.102-.02-.102-.019-.102-.018-.102-.017-.103-.016-.103-.015-.103-.014-.103-.012-.104-.011-.104-.01-.104-.009-.104-.008-.104-.007-.104-.006-.104-.005-.105-.004-.105-.003-.105-.002-.105-.001-.105v-.105l.001-.105.003-.105.004-.105.005-.105.006-.105.007-.105.008-.105.009-.105.01-.105.011-.105.012-.105.013-.105.014-.105.016-.105.017-.105.018-.105.019-.104.02-.104.021-.104.022-.104.023-.104.024-.104.025-.104.026-.103.027-.103.028-.103.03-.103.031-.102.032-.102.033-.102.034-.102.035-.101.036-.101.037-.101.038-.101.039-.1.04-.1.041-.1.042-.099.043-.099.044-.098.045-.098.046-.098.047-.097.048-.097.05-.097.051-.096.052-.096.053-.095.054-.095.055-.094.056-.094.057-.093.058-.093.059-.092.059-.092.061-.091.061-.091.062-.09.063-.09.064-.089.065-.088.066-.088.067-.087.068-.087.069-.086.07-.085.071-.085.072-.084.073-.083.074-.083.074-.082.075-.081.076-.081.077-.08.078-.079.079-.078.08-.078.081-.077.081-.076.082-.075.083-.075.084-.074.085-.073.085-.072.086-.072.087-.071.088-.07.088-.069.089-.068.09-.067.091-.067.091-.066.092-.065.093-.064.094-.063.094-.062.095-.061.096-.06.096-.06.097-.059.098-.058.098-.057.099-.056.1-.055.1-.054.101-.053.101-.052.102-.051.103-.05.103-.049.104-.048.104-.047.105-.046.105-.045.106-.044.106-.043.107-.042.107-.041.108-.04.108-.039.109-.038.109-.037.11-.036.11-.035.11-.034.111-.033.111-.032.112-.03.112-.029.112-.028.113-.027.113-.026.113-.025.114-.024.114-.023.114-.022.115-.021.115-.02.115-.018.115-.017.116-.016.116-.015.043-.005zm.049 4.123-.033-2.81-.095.013-.102.015-.102.016-.101.017-.102.018-.101.019-.101.02-.101.021-.1.022-.1.023-.1.024-.099.025-.099.026-.095.026-.102.029-.098.029-.098.03-.097.031-.097.032-.097.033-.096.034-.096.034-.095.035-.095.036-.094.037-.094.038-.094.039-.093.04-.093.041-.092.042-.092.043-.091.043-.09.044-.09.045-.089.046-.089.047-.088.047-.088.049-.087.049-.087.05-.086.051-.086.052-.085.053-.084.053-.084.054-.083.055-.083.056-.082.056-.081.057-.081.058-.08.059-.079.059-.079.06-.078.061-.077.062-.077.062-.076.063-.075.064-.074.064-.074.065-.073.066-.072.066-.072.067-.071.068-.07.068-.069.069-.069.07-.068.07-.067.071-.066.072-.066.072-.065.073-.064.073-.063.074-.062.075-.062.075-.061.076-.06.076-.059.077-.058.077-.057.078-.057.078-.056.079-.055.079-.054.08-.053.08-.052.081-.051.081-.051.082-.05.082-.049.082-.048.083-.047.083-.046.084-.045.084-.044.085-.043.085-.043.085-.042.086-.041.086-.04.086-.039.086-.038.087-.037.087-.036.087-.035.088-.034.088-.033.088-.032.088-.032.089-.031.089-.03.089-.029.09-.028.09-.027.09-.026.09-.025.09-.024.091-.023.091-.022.091-.021.091-.02.091-.019.091-.018.091-.017.091-.016.092-.015.092-.015.092-.014.092-.013.092-.012.092-.011.092-.01.092-.009.092-.008.092-.007.092-.006.092-.005.092-.004.092-.003.092-.002.092-.001.092v.092l.001.092.002.092.003.092.003.091.004.091.005.091.006.091.007.091.008.091.009.091.01.091.011.09.012.09.013.09.014.09.015.09.015.09.016.089.017.089.018.089.019.088.02.088.021.088.022.088.023.087.024.087.024.087.025.087.026.086.027.086.028.086.029.085.03.085.03.085.031.084.032.084.033.083.034.083.035.083.035.082.036.082.037.081.038.081.039.081.039.08.04.08.041.079.042.079.043.078.043.078.044.077.045.077.046.076.046.076.047.075.048.075.049.074.049.074.05.073.051.073.052.072.052.072.053.071.054.07.054.07.055.069.056.069.056.068.057.067.058.067.058.066.059.065.059.065.06.064.061.064.061.063.062.062.062.062.063.061.064.06.064.06.065.059.065.058.066.058.066.057.067.056.067.056.068.055.068.054.069.053.069.053.07.052.07.051.071.05.071.05.072.049.072.048.073.047.073.047.074.046.074.045.074.044.075.044.075.043.076.042.076.041.076.041.077.04.077.039.077.038.078.037.078.037.078.036.079.035.079.034.079.033.079.033.08.032.08.031.08.03.08.029.081.029.081.028.081.027.081.026.082.025.082.024.082.024.082.023.082.022.082.021.083.02.083.02.083.019.083.018.083.017.083.016.083.015.083.015.084.014.084.013.084.012.084.011.084.01.084.01.084.009.084.008.084.007.084.006.084.006.084.005.084.004.084.003.084.002.084.001h.168l.083-.001.083-.002.083-.003.083-.004.083-.004.083-.005.083-.006.083-.007.082-.008.082-.008.082-.009.082-.01.082-.011.082-.012.082-.012.081-.013.081-.014.081-.015.081-.016.08-.016.08-.017.08-.018.08-.019.079-.02.079-.02.079-.021.079-.022.078-.022.078-.023.078-.024.077-.025.077-.025.077-.026.076-.027.076-.028.076-.028.075-.029.075-.03.075-.031.074-.031.074-.032.074-.033.073-.033.073-.034.072-.035.072-.035.072-.036.071-.037.071-.037.07-.038.07-.039.069-.039.069-.04.068-.041.068-.041.067-.042.067-.043.066-.043.066-.044.065-.044.065-.045.064-.045.064-.046.063-.047.063-.047.062-.048.061-.048.061-.049.061-.05.06-.05.059-.051.059-.051.058-.052.058-.052.057-.053.056-.053.056-.054.055-.054.055-.055.054-.055.053-.056.053-.056.052-.057.052-.057.051-.058.05-.058.05-.058.049-.059.048-.059.048-.06.047-.06.046-.061.046-.061.045-.061.044-.062.044-.062.043-.062.042-.063.042-.063.041-.064.04-.064.04-.064.039-.065.038-.065.038-.065.037-.065.036-.066.035-.066.034-.066.034-.067.033-.067.032-.067.032-.067.031-.068.03-.068.03-.068.029-.068.028-.069.027-.069.027-.069.026-.069.025-.07.024-.07.024-.07.023-.07.022-.07.021-.07.021-.07.02-.071.019-.071.018-.071.018-.071.017-.071.016-.071.015-.071.015-.071.014-.071.013-.072.012-.072.012-.072.011-.072.01-.072.009-.072.009-.072.008-.072.007-.072.007-.072.006-.072.005-.072.004-.072.003-.072.003-.072.002-.072.001-.071.001-.072v-.072l-.001-.072-.002-.071-.002-.071-.003-.071-.004-.071-.005-.071-.005-.071-.006-.071-.007-.071-.008-.07-.008-.07-.009-.07-.01-.07-.01-.07-.011-.07-.012-.069-.012-.069-.013-.069-.014-.069-.015-.069-.015-.068-.016-.068-.017-.068-.017-.068-.018-.068-.019-.067-.019-.067-.02-.067-.021-.067-.021-.066-.022-.066-.023-.066-.023-.066-.024-.065-.025-.065-.025-.065-.026-.064-.027-.064-.027-.063-.028-.063-.028-.063-.029-.063-.03-.062-.03-.062-.031-.061-.032-.061-.032-.061-.033-.06-.033-.06-.034-.06-.034-.059-.035-.059-.036-.059-.036-.058-.037-.058-.037-.057-.038-.057-.038-.056-.039-.056-.039-.056-.04-.055-.041-.055-.041-.054-.042-.054-.042-.053-.043-.053-.043-.052-.044-.052-.044-.051-.044-.051-.045-.05-.045-.05-.046-.049-.046-.049-.047-.049-.047-.048-.048-.047-.048-.047-.049-.046-.049-.046-.05-.045-.05-.045-.05-.044-.051-.044-.051-.043-.052-.043-.052-.042-.052-.041-.053-.041-.053-.04-.053-.04-.054-.039-.054-.039-.054-.038-.055-.038-.055-.037-.055-.036-.056-.036-.056-.035-.056-.034-.057-.034-.057-.033-.057-.033-.057-.032-.058-.032-.058-.031-.058-.03-.058-.03-.059-.029-.059-.029-.059-.028-.059-.027-.06-.027-.06-.026-.06-.025-.06-.025-.06-.024-.061-.024-.061-.023-.061-.022-.061-.022-.061-.021-.062-.021-.061-.02-.062-.019-.062-.019-.062-.018-.062-.017-.062-.017-.062-.016-.062-.015-.063-.015-.063-.014-.063-.014-.063-.013-.063-.012-.063-.012-.063-.011-.063-.01-.063-.01-.063-.009-.063-.009-.063-.008-.063-.007-.063-.007-.063-.006-.063-.005-.063-.005-.063-.004-.063-.004-.063-.003-.063-.002-.063-.002-.063-.001h-.106l.032 2.746h.019l.036.001.036.001.036.001.036.002.036.002.036.002.036.003.036.003.036.004.036.004.036.004.037.005.036.005.037.005.037.006.037.006.036.007.037.007.036.007.036.008.036.008.036.008.036.009.036.009.036.01.036.01.036.01.036.011.036.011.036.012.036.012.036.012.036.013.036.013.036.014.036.014.035.014.035.015.035.015.035.015.035.016.035.016.035.017.035.017.035.017.034.018.034.018.034.019.034.019.034.019.034.02.034.02.033.02.033.021.033.021.033.021.033.022.033.022.032.023.032.023.032.023.032.024.032.024.031.024.031.025.031.025.031.025.031.026.03.026.03.027.03.027.03.027.029.028.029.028.029.028.029.029.028.029.028.029.028.03.027.03.027.03.027.031.027.031.026.031.026.031.026.032.025.032.025.032.025.033.025.033.024.033.024.034.024.034.023.034.023.035.023.035.022.035.022.035.022.036.021.036.021.036.021.036.02.037.02.037.02.037.019.037.019.038.018.038.018.038.018.038.017.039.017.039.016.039.016.039.016.04.015.04.015.04.014.04.014.04.014.041.013.041.013.041.012.041.012.041.012.042.011.042.011.042.01.042.01.042.009.042.009.043.009.043.008.043.008.043.007.043.007.043.006.043.006.044.005.044.005.044.005.044.004.044.004.044.003.044.003.044.002.044.002.044.001.044.001.045v.135l-.001.045-.002.045-.002.045-.002.045-.003.045-.003.045-.004.045-.004.045-.005.045-.005.045-.006.045-.006.045-.007.045-.007.045-.008.045-.008.045-.009.045-.009.045-.01.045-.01.045-.011.045-.011.045-.012.045-.012.045-.013.045-.013.045-.014.045-.014.044-.015.044-.015.044-.015.044-.016.044-.017.044-.017.044-.017.044-.018.044-.018.044-.019.043-.019.043-.02.043-.02.043-.021.043-.021.043-.022.043-.022.042-.023.042-.023.042-.024.042-.024.042-.025.042-.025.041-.026.041-.026.041-.026.041-.027.041-.027.04-.028.04-.028.04-.029.04-.029.039-.03.039-.03.039-.031.039-.031.038-.031.038-.032.038-.032.038-.033.037-.033.037-.034.037-.034.036-.034.036-.035.036-.035.035-.036.035-.036.035-.037.035-.037.034-.037.034-.038.034-.038.033-.039.033-.039.032-.039.032-.04.032-.04.031-.04.031-.041.031-.041.03-.042.03-.042.03-.042.029-.043.029-.043.029-.043.028-.044.028-.044.027-.044.027-.045.026-.045.026-.045.026-.046.025-.046.025-.046.024-.047.024-.047.023-.047.023-.048.023-.048.022-.048.022-.048.021-.049.021-.049.02-.049.02-.05.019-.05.019-.05.018-.05.018-.05.017-.051.017-.051.017-.051.016-.051.015-.052.015-.052.014-.052.014-.052.013-.052.013-.053.012-.053.012-.053.011-.053.011-.053.01-.054.01-.054.009-.054.009-.054.008-.054.008-.054.007-.055.007-.055.006-.055.006-.055.005-.055.005-.055.004-.055.003-.055.003-.055.002-.056.002-.056.001-.056.001h-.112l-.056-.001-.056-.002-.056-.002-.056-.003-.056-.003-.056-.004-.056-.004-.056-.005-.056-.005-.056-.006-.056-.007-.056-.007-.056-.008-.056-.008-.056-.009-.056-.009-.056-.01-.056-.011-.056-.011-.056-.012-.056-.012-.056-.013-.056-.013-.056-.014-.056-.015-.055-.015-.055-.016-.055-.016-.055-.017-.055-.017-.055-.018-.055-.018-.055-.019-.054-.02-.054-.02-.054-.021-.054-.021-.054-.022-.054-.022-.053-.023-.053-.024-.053-.024-.053-.025-.053-.025-.053-.026-.052-.026-.052-.027-.052-.027-.052-.028-.051-.029-.051-.029-.051-.03-.051-.03-.05-.031-.05-.031-.05-.032-.05-.032-.049-.033-.049-.033-.049-.034-.048-.034-.048-.035-.048-.035-.047-.036-.047-.036-.047-.037-.046-.037-.046-.038-.046-.038-.045-.039-.045-.039-.045-.04-.044-.04-.044-.041-.044-.041-.043-.042-.043-.042-.042-.043-.042-.043-.042-.044-.041-.044-.041-.045-.04-.045-.04-.045-.04-.046-.039-.046-.039-.047-.038-.047-.038-.048-.037-.048-.037-.049-.036-.049-.036-.049-.035-.05-.035-.05-.034-.051-.034-.051-.033-.051-.033-.052-.033-.052-.032-.052-.031-.053-.031-.053-.03-.054-.03-.054-.029-.054-.029-.055-.028-.055-.028-.055-.027-.056-.027-.056-.026-.056-.026-.057-.025-.057-.024-.057-.024-.057-.023-.058-.023-.058-.022-.058-.021-.059-.021-.059-.02-.059-.02-.059-.019-.06-.019-.06-.018-.06-.017-.06-.017-.061-.016-.061-.016-.061-.015-.061-.014-.061-.014-.062-.013-.062-.012-.062-.012-.062-.011-.062-.01-.063-.01-.063-.009-.063-.009-.063-.008-.063-.007-.063-.007-.064-.006-.064-.005-.064-.005-.064-.004-.064-.003-.064-.003-.064-.002-.064-.001-.064-.001-.064v-.064l.001-.065.001-.065.002-.065.003-.065.003-.065.004-.065.005-.065.005-.065.006-.065.007-.065.007-.065.008-.065.009-.065.009-.065.01-.065.011-.065.011-.065.012-.065.013-.065.014-.064.014-.064.015-.064.016-.064.016-.064.017-.064.018-.064.018-.064.019-.064.02-.063.02-.063.021-.063.022-.063.022-.063.023-.063.024-.063.024-.062.025-.062.026-.062.026-.062.027-.062.028-.061.028-.061.029-.061.03-.061.03-.061.031-.06.032-.06.032-.06.033-.059.034-.059.034-.059.035-.059.036-.058.036-.058.037-.058.037-.058.038-.057.039-.057.039-.056.04-.056.04-.056.041-.056.042-.055.042-.055.043-.054.044-.054.044-.054.045-.053.045-.053.046-.052.046-.052.047-.052.048-.051.048-.051.049-.05.049-.05.05-.049.05-.049.051-.049.052-.048.052-.048.053-.047.053-.047.054-.046.054-.046.055-.045.055-.045.056-.044.056-.044.057-.043.057-.043.058-.042.058-.042.059-.041.059-.04.06-.04.06-.039.061-.039.061-.038.061-.038.062-.037.062-.037.063-.036.063-.035.064-.035.064-.034.064-.034.065-.033.065-.032.066-.032.066-.031.066-.03.067-.03.067-.029.068-.029.068-.028.068-.027.069-.027.069-.026.069-.025.07-.025.07-.024.07-.023.07-.023.071-.022.071-.021.071-.021.072-.02.072-.019.072-.019.072-.018.073-.017.073-.016.073-.016.073-.015.073-.014.037-.007zm.903 5.28-.838.2-.049-4.152-.04.009-.059.014-.059.015-.059.015-.059.016-.059.016-.059.017-.058.017-.058.018-.057.018-.058.019-.057.02-.057.02-.057.021-.056.021-.056.022-.056.022-.055.023-.055.023-.055.024-.055.024-.054.025-.054.025-.054.026-.053.026-.053.027-.053.027-.052.028-.052.028-.052.029-.051.029-.051.03-.051.03-.05.031-.05.031-.049.032-.049.032-.049.033-.048.033-.048.033-.047.034-.047.034-.047.035-.046.035-.046.036-.045.036-.045.036-.044.037-.044.037-.043.037-.043.038-.043.038-.042.039-.042.039-.041.039-.041.04-.04.04-.04.04-.04.041-.039.041-.039.042-.038.042-.038.042-.037.042-.037.043-.036.043-.036.043-.035.044-.035.044-.034.044-.034.045-.033.045-.033.045-.032.045-.032.046-.031.046-.031.046-.03.046-.03.047-.029.047-.028.047-.028.047-.027.047-.027.048-.027.048-.026.048-.025.048-.025.049-.024.049-.024.049-.023.049-.023.049-.022.049-.022.05-.021.05-.021.05-.02.05-.02.05-.019.05-.018.05-.018.051-.017.051-.017.051-.016.051-.016.051-.015.051-.015.051-.014.051-.014.051-.013.051-.012.051-.012.051-.011.052-.011.052-.01.052-.01.052-.009.052-.009.052-.008.052-.008.052-.007.052-.006.052-.006.052-.005.052-.005.052-.004.052-.004.052-.003.052-.003.052-.002.052-.002.051-.001.052-.001.051v.051l.001.051.001.051.002.051.002.051.003.051.003.051.004.051.004.051.005.05.005.05.006.05.006.05.007.05.007.05.008.05.008.05.009.05.009.049.01.049.01.049.011.049.011.049.012.049.012.048.013.048.013.048.014.048.014.047.015.047.015.047.016.047.016.047.017.046.017.046.017.046.018.046.018.045.019.045.019.045.02.045.02.044.021.044.021.044.021.044.022.044.022.043.023.043.023.043.024.042.024.042.024.042.025.041.025.041.025.041.026.04.026.04.027.04.027.04.027.039.028.039.028.039.028.038.029.038.029.038.029.037.03.037.03.037.03.036.031.036.031.035.031.035.032.035.032.034.032.034.033.034.033.033.033.033.034.032.034.032.034.032.034.031.035.031.035.031.035.03.036.03.036.029.036.029.036.029.036.028.037.028.037.027.037.027.037.027.038.026.038.026.038.025.038.025.038.024.039.024.039.024.039.023.039.023.039.022.04.022.04.022.04.021.04.021.04.02.04.02.04.019.041.019.041.019.041.018.041.018.041.017.041.017.041.016.042.016.042.015.042.015.042.015.042.014.042.014.042.013.042.013.042.012.042.012.042.012.042.011.042.011.042.01.042.01.043.009.043.009.043.008.043.008.043.008.043.007.043.007.043.006.043.006.043.005.043.005.043.005.043.004.043.004.043.003.042.003.043.002.042.002.042.002.042.001.042.001h.126l.042-.001.042-.001.042-.002.042-.002.042-.003.041-.003.042-.003.041-.004.041-.004.041-.005.041-.005.041-.005.041-.006.041-.006.041-.007.04-.007.04-.007.04-.008.04-.008.04-.009.04-.009.04-.009.039-.01.039-.01.039-.01.039-.011.039-.011.038-.012.038-.012.038-.012.038-.013.038-.013.037-.013.037-.014.037-.014.037-.014.037-.015.036-.015.036-.015.036-.016.036-.016.036-.016.035-.017.035-.017.035-.017.034-.018.034-.018.034-.018.034-.019.034-.019.033-.019.033-.02.033-.02.032-.02.032-.02.032-.021.032-.021.031-.021.031-.022.031-.022.031-.022.03-.022.03-.023.03-.023.029-.023.029-.023.029-.024.029-.024.028-.024.028-.024.028-.025.027-.025.027-.025.027-.025.026-.026.026-.026.026-.026.025-.026.025-.026.025-.026.025-.027.024-.027.024-.027.023-.027.023-.027.023-.028.022-.028.022-.028.022-.028.021-.028.021-.029.021-.029.02-.029.02-.029.02-.029.02-.029.019-.029.019-.03.018-.03.018-.03.018-.03.017-.03.017-.03.017-.03.016-.03.016-.03.016-.031.015-.031.015-.031.015-.031.014-.031.014-.031.014-.031.013-.031.013-.031.013-.032.012-.031.012-.032.011-.031.011-.032.011-.032.01-.032.01-.032.01-.032.009-.032.009-.032.009-.032.008-.032.008-.032.008-.032.007-.032.007-.032.007-.032.006-.032.006-.032.005-.032.005-.032.005-.032.004-.032.004-.032.004-.032.003-.032.003-.032.003-.032.002-.032.002-.032.002-.032.001-.032.001-.031.001-.032v-.094l-.001-.031-.001-.031-.001-.031-.002-.031-.002-.031-.002-.03-.003-.031-.003-.031-.003-.03-.003-.03-.004-.031-.004-.03-.004-.03-.005-.03-.005-.03-.005-.03-.006-.03-.006-.029-.006-.03-.007-.029-.007-.029-.007-.029-.007-.029-.008-.029-.008-.028-.008-.029-.009-.028-.009-.028-.009-.028-.009-.028-.01-.028-.01-.027-.01-.027-.01-.027-.011-.027-.011-.027-.011-.026-.012-.027-.012-.026-.012-.026-.012-.026-.012-.026-.013-.026-.013-.025-.013-.025-.013-.025-.014-.025-.014-.025-.014-.024-.014-.024-.015-.024-.015-.024-.015-.023-.015-.023-.015-.023-.016-.023-.016-.023-.016-.023-.016-.022-.016-.022-.017-.022-.017-.022-.017-.022-.017-.021-.017-.021-.018-.021-.018-.021-.018-.02-.018-.02-.018-.02-.018-.02-.019-.019-.019-.019-.019-.019-.019-.019-.019-.018-.019-.018-.02-.018-.02-.018-.02-.018-.02-.017-.02-.017-.02-.017-.02-.017-.02-.016-.02-.016-.021-.016-.021-.015-.021-.015-.021-.015-.021-.015-.021-.015-.021-.014-.021-.014-.022-.014-.021-.013-.022-.013-.022-.013-.022-.013-.022-.012-.022-.012-.022-.012-.022-.012-.022-.011-.022-.011-.022-.011-.022-.011-.022-.01-.022-.01-.022-.01-.023-.01-.022-.009-.023-.009-.023-.009-.023-.009-.023-.008-.023-.008-.023-.008-.023-.008-.023-.007-.023-.007-.023-.007-.023-.007-.023-.006-.023-.006-.023-.006-.023-.006-.023-.005-.023-.005-.023-.005-.023-.005-.023-.004-.023-.004-.023-.004-.023-.004-.023-.003-.022-.003-.023-.003-.023-.003-.022-.002-.023-.002-.022-.002-.022-.002-.022-.001-.022-.001-.022-.001-.022-.001-.022-.001h-.088l-.022.001-.022.001-.022.001-.022.001-.021.001-.021.002-.021.002-.021.002-.021.002-.021.003-.021.003-.021.003-.021.003-.021.003-.021.004-.02.004-.02.004-.02.004-.02.004-.02.005z"/></symbol><symbol id="icon-logo_4" viewBox="0 0 84 32"><path fill="#152c4f" style="fill:var(--color1, #152c4f)" d="M17.162 16.227c0-1.168.698-1.982 1.763-1.982s1.763.814 1.763 1.982c0 1.155-.697 1.982-1.763 1.982s-1.763-.827-1.763-1.982zM26.177 14.193c-1.013 0-1.698.788-1.698 1.864 0 1.089.697 1.903 1.698 1.903 1.105 0 1.842-.827 1.842-1.903 0-1.063-.737-1.864-1.842-1.864zM32.051 16.227c0-1.168.697-1.982 1.763-1.982s1.763.814 1.763 1.982c0 1.155-.697 1.982-1.763 1.982s-1.763-.827-1.763-1.982zM42.775 16.24c0-1.168.711-1.982 1.829-1.982s1.79.827 1.79 1.982-.671 1.969-1.79 1.969-1.829-.801-1.829-1.969z"/><path fill="#152c4f" style="fill:var(--color1, #152c4f)" d="M42.105 29.96c-22.36 0-40.486-6.344-40.486-14.17S19.745 1.62 42.105 1.62c22.36 0 40.486 6.344 40.486 14.17S64.465 29.96 42.105 29.96zM14.561 19.482V9.716h-1.605v9.766h1.605zm.983-3.255c0 1.995 1.342 3.413 3.382 3.413s3.382-1.418 3.382-3.413c0-1.995-1.342-3.413-3.382-3.413s-3.382 1.418-3.382 3.413zm10.357 3.124c.947 0 1.763-.381 2.171-1.011v1.103c0 1.063-.671 1.772-1.79 1.772-1 0-1.684-.486-1.776-1.339h-1.619c.211 1.693 1.513 2.796 3.303 2.796 2.106 0 3.448-1.378 3.448-3.518v-6.156h-1.421l-.092.88c-.395-.683-1.211-1.09-2.171-1.09-1.855 0-3.106 1.405-3.106 3.308 0 1.89 1.224 3.255 3.053 3.255zm4.532-3.124c0 1.995 1.342 3.413 3.382 3.413s3.382-1.418 3.382-3.413c0-1.995-1.342-3.413-3.382-3.413s-3.382 1.418-3.382 3.413zm9.462-5.513a.954.954 0 0 0-.961-.945.934.934 0 0 0-.947.945c0 .538.408.958.947.958.526 0 .961-.42.961-.958zm-.158 2.284h-1.605v6.484h1.605v-6.484zm1.406 9.49h1.566V18.59c.408.669 1.29 1.063 2.263 1.063 1.921 0 3.066-1.47 3.04-3.492-.039-2.035-1.211-3.36-3.053-3.36-.987 0-1.882.433-2.277 1.181l-.092-.984h-1.448v9.49zm9.883-2.835c1.526 0 2.566-.814 2.566-2.074 0-.932-.579-1.562-1.645-1.825l-1.145-.276c-.487-.131-.816-.302-.816-.722 0-.446.355-.761.934-.761.605 0 1 .341 1 .906h1.461c-.053-1.286-1.013-2.1-2.421-2.1-1.395 0-2.435.814-2.435 2.048 0 .84.487 1.536 1.737 1.864l1.132.289c.421.118.684.315.684.683 0 .512-.487.748-1.079.748-.711 0-1.119-.328-1.119-.893h-1.461c.053 1.286 1.053 2.113 2.606 2.113zm5.896 0c.881 0 1.724-.407 2.105-1.011l.106.84h1.5v-6.484h-1.606v3.4c0 1.168-.447 1.825-1.5 1.825-.816 0-1.382-.394-1.382-1.733v-3.492h-1.606v4.056c0 1.549.842 2.599 2.382 2.599zm6.734-3.898c0-1.05.619-1.549 1.382-1.549s1.263.486 1.263 1.404v3.872h1.566v-3.715c0-1.063.605-1.562 1.369-1.562.776 0 1.276.486 1.276 1.404v3.872h1.553v-4.24c0-1.496-.829-2.441-2.408-2.441-.987 0-1.763.473-2.079 1.234-.355-.761-1.066-1.234-2.145-1.234-.763 0-1.447.354-1.829.932l-.079-.735h-1.474v6.484h1.606v-3.728z"/></symbol><symbol id="icon-logo_5" viewBox="0 0 171 32"><path fill="#4845d2" style="fill:var(--color6, #4845d2)" d="M67.582 6.284H64v16.163h9.916V19.28h-6.334V6.284zM74.258 16.965c0 3.451 2.315 5.745 5.81 5.745 3.473 0 5.788-2.293 5.788-5.745s-2.315-5.766-5.788-5.766c-3.495 0-5.81 2.315-5.81 5.766zm3.386-.022c0-1.638.961-2.73 2.424-2.73 1.442 0 2.403 1.092 2.403 2.73 0 1.66-.961 2.752-2.403 2.752-1.463 0-2.424-1.092-2.424-2.752zM86.398 16.79c0 3.298 2.141 5.526 5.177 5.526 1.463 0 2.73-.524 3.364-1.376v1.507c0 1.507-.939 2.512-2.599 2.512-1.485 0-2.512-.699-2.577-1.944h-3.407c.306 2.992 2.621 5.002 5.788 5.002 3.735 0 6.094-2.424 6.094-6.269V11.526h-3.036l-.175 1.114c-.612-.896-1.9-1.485-3.385-1.485-3.058 0-5.242 2.293-5.242 5.635zm3.407-.087c0-1.573 1.048-2.621 2.381-2.621 1.551 0 2.687 1.027 2.687 2.621s-1.114 2.687-2.665 2.687c-1.332 0-2.403-1.092-2.403-2.687zM99.217 16.965c0 3.451 2.315 5.745 5.81 5.745 3.473 0 5.788-2.293 5.788-5.745s-2.315-5.766-5.788-5.766c-3.495 0-5.81 2.315-5.81 5.766zm3.385-.022c0-1.638.961-2.73 2.425-2.73 1.441 0 2.402 1.092 2.402 2.73 0 1.66-.961 2.752-2.402 2.752-1.464 0-2.425-1.092-2.425-2.752zM113.715 9.822c1.048 0 1.9-.852 1.9-1.922s-.852-1.9-1.9-1.9c-1.07 0-1.922.83-1.922 1.9s.852 1.922 1.922 1.922zm-1.704 12.625h3.386V11.526h-3.386v10.921zM117.368 27.689h3.32v-6.334c.633.83 2.075 1.398 3.582 1.398 3.254 0 5.22-2.49 5.133-5.941-.088-3.517-2.119-5.635-5.155-5.635-1.551 0-3.014.677-3.626 1.682l-.175-1.332h-3.079V27.69zm3.385-10.702c0-1.638 1.092-2.73 2.665-2.73 1.594 0 2.599 1.114 2.599 2.73s-1.005 2.73-2.599 2.73c-1.573 0-2.665-1.092-2.665-2.73zM129.761 18.996c.087 2.206 1.835 3.735 4.587 3.735 2.643 0 4.478-1.398 4.478-3.648 0-1.616-.961-2.687-2.753-3.123l-1.943-.48c-.699-.175-1.136-.35-1.136-.917s.458-.939 1.136-.939c.764 0 1.266.502 1.245 1.245h3.036c-.088-2.272-1.813-3.691-4.216-3.691-2.424 0-4.237 1.442-4.237 3.626 0 1.463.808 2.665 2.97 3.233l1.922.502c.568.153.808.415.808.786 0 .546-.502.896-1.354.896-.983 0-1.507-.459-1.507-1.223h-3.036zM143.974 22.731c1.333 0 2.665-.612 3.342-1.507l.219 1.223h3.167V11.526h-3.364v5.679c0 1.638-.48 2.534-2.031 2.534-1.202 0-1.988-.546-1.988-2.577v-5.635h-3.364v6.858c0 2.599 1.442 4.347 4.019 4.347zM156.036 22.447v-5.963c0-1.835.983-2.359 1.944-2.359 1.07 0 1.769.655 1.769 2.01v6.312h3.32v-5.963c0-1.857.961-2.381 1.922-2.381 1.07 0 1.791.655 1.791 2.031v6.312h3.277v-7.142c0-2.49-1.311-4.15-4.129-4.15-1.572 0-2.861.764-3.429 1.944-.655-1.18-1.791-1.944-3.604-1.944-1.201 0-2.315.546-2.97 1.42l-.131-1.048h-3.146v10.921h3.386zM0 16C0 7.163 7.163 0 16 0h21c8.837 0 16 7.163 16 16v16H16C7.163 32 0 24.837 0 16z"/><path fill="#a5b4fc" style="fill:var(--color7, #a5b4fc)" d="M16 6h21c5.523 0 10 4.477 10 10s-4.477 10-10 10H16c-5.523 0-10-4.477-10-10S10.477 6 16 6z"/><path style="fill:var(--color8, #000)" d="M21 16a5 5 0 1 1-10.001-.001A5 5 0 0 1 21 16z"/><path fill="#fff" style="fill:var(--color9, #fff)" d="M15 14a1 1 0 1 1-2 0 1 1 0 0 1 2 0z"/><path style="fill:var(--color8, #000)" d="M43 16a5 5 0 1 1-10.001-.001A5 5 0 0 1 43 16z"/><path fill="#fff" style="fill:var(--color9, #fff)" d="M37 14a1 1 0 1 1-2 0 1 1 0 0 1 2 0z"/></symbol><symbol id="icon-logo_6" viewBox="0 0 160 32"><path fill="#3a5088" style="fill:var(--color10, #3a5088)" d="M48.073 24.238V7.95h3.071v13.496h7.446v2.792H48.073zM65.222 24.564c-1.148 0-2.179-.233-3.095-.698s-1.637-1.14-2.164-2.024-.791-1.947-.791-3.188v-.372c0-1.241.264-2.304.791-3.188s1.249-1.559 2.164-2.024c.915-.465 1.947-.698 3.095-.698s2.18.233 3.095.698c.915.465 1.636 1.14 2.164 2.024s.791 1.947.791 3.188v.372c0 1.241-.264 2.304-.791 3.188s-1.249 1.559-2.164 2.024c-.915.465-1.947.698-3.095.698zm0-2.606c.9 0 1.644-.287 2.234-.861.589-.59.884-1.427.884-2.513v-.233c0-1.086-.295-1.916-.884-2.49-.574-.589-1.319-.884-2.234-.884-.9 0-1.644.295-2.234.884-.59.574-.884 1.404-.884 2.49v.233c0 1.086.295 1.924.884 2.513.59.574 1.334.861 2.234.861zM72.372 18.514v-.372c0-1.21.24-2.242.721-3.095.481-.869 1.117-1.528 1.908-1.978a5.175 5.175 0 0 1 2.629-.698c1.055 0 1.854.186 2.397.558s.939.76 1.187 1.163h.419v-1.396h2.885v13.589c0 .791-.233 1.419-.698 1.885-.465.481-1.086.721-1.862.721h-7.725v-2.559h6.701c.434 0 .651-.233.651-.698v-3.002h-.419a4.008 4.008 0 0 1-.651.768c-.279.248-.651.458-1.117.628s-1.055.256-1.768.256a5.306 5.306 0 0 1-2.629-.675c-.791-.465-1.427-1.125-1.908-1.978-.481-.869-.721-1.908-.721-3.118zm6.096 3.211c.9 0 1.652-.287 2.257-.861s.907-1.381.907-2.42v-.233c0-1.055-.302-1.861-.907-2.42-.59-.574-1.342-.861-2.257-.861-.9 0-1.652.287-2.257.861-.605.559-.907 1.365-.907 2.42v.233c0 1.039.302 1.846.907 2.42s1.357.861 2.257.861zM92.213 24.564c-1.148 0-2.18-.233-3.095-.698s-1.636-1.14-2.164-2.024-.791-1.947-.791-3.188v-.372c0-1.241.264-2.304.791-3.188s1.249-1.559 2.164-2.024c.915-.465 1.947-.698 3.095-.698s2.179.233 3.095.698c.915.465 1.636 1.14 2.164 2.024s.791 1.947.791 3.188v.372c0 1.241-.264 2.304-.791 3.188s-1.249 1.559-2.164 2.024c-.915.465-1.947.698-3.095.698zm0-2.606c.9 0 1.644-.287 2.234-.861.59-.59.884-1.427.884-2.513v-.233c0-1.086-.295-1.916-.884-2.49-.574-.589-1.319-.884-2.234-.884-.9 0-1.644.295-2.234.884-.59.574-.884 1.404-.884 2.49v.233c0 1.086.295 1.924.884 2.513.59.574 1.334.861 2.234.861zM99.922 24.238V12.697h2.932v11.541h-2.932zm1.466-12.891c-.528 0-.977-.171-1.35-.512-.356-.341-.535-.791-.535-1.35s.178-1.008.535-1.35a1.929 1.929 0 0 1 1.35-.512c.543 0 .993.171 1.349.512s.536.791.536 1.35-.179 1.008-.536 1.35c-.356.341-.806.512-1.349.512zM105.056 28.892V12.697h2.885v1.396h.419c.263-.45.674-.845 1.233-1.187.558-.357 1.357-.535 2.397-.535.93 0 1.791.233 2.582.698.792.45 1.428 1.117 1.908 2.001s.722 1.955.722 3.211v.372c0 1.256-.241 2.327-.722 3.211s-1.116 1.559-1.908 2.024a5.134 5.134 0 0 1-2.582.675c-.698 0-1.288-.085-1.769-.256-.465-.155-.845-.357-1.14-.605a4.392 4.392 0 0 1-.675-.791h-.419v5.98h-2.931zm6.049-6.888c.916 0 1.668-.287 2.257-.861.605-.59.908-1.443.908-2.559v-.233c0-1.117-.303-1.962-.908-2.536-.605-.589-1.357-.884-2.257-.884-.899 0-1.652.295-2.257.884-.605.574-.907 1.419-.907 2.536v.233c0 1.117.302 1.97.907 2.559.605.574 1.358.861 2.257.861zM123.64 24.564c-1.505 0-2.738-.326-3.7-.977-.961-.651-1.543-1.582-1.745-2.792l2.699-.698c.109.543.287.97.536 1.28.263.31.581.535.954.675.387.124.806.186 1.256.186.683 0 1.187-.116 1.512-.349.326-.248.489-.551.489-.907s-.155-.628-.465-.814c-.311-.202-.807-.364-1.489-.489l-.652-.116a12.307 12.307 0 0 1-2.21-.628c-.668-.279-1.203-.659-1.606-1.14s-.605-1.101-.605-1.861c0-1.148.419-2.024 1.257-2.629.837-.62 1.939-.931 3.304-.931 1.287 0 2.358.287 3.211.861s1.411 1.326 1.675 2.257l-2.722.838c-.124-.589-.38-1.008-.768-1.256-.373-.248-.838-.372-1.396-.372s-.985.101-1.28.303a.884.884 0 0 0-.442.791c0 .372.155.652.465.838.31.171.729.302 1.257.396l.651.116c.869.155 1.652.365 2.35.628.714.248 1.272.613 1.676 1.094.418.465.628 1.101.628 1.908 0 1.21-.442 2.148-1.326 2.816-.869.651-2.04.977-3.514.977zM134.4 24.424c-.9 0-1.691-.202-2.374-.605-.667-.419-1.186-.993-1.559-1.722s-.558-1.567-.558-2.513v-6.887h2.932v6.655c0 .869.209 1.52.628 1.955.434.434 1.047.651 1.838.651.9 0 1.598-.295 2.094-.884.497-.605.745-1.443.745-2.513v-5.864h2.932v11.541h-2.886v-1.512h-.418c-.186.388-.536.768-1.047 1.14-.512.372-1.288.558-2.327.558zM143.293 24.238V12.697h2.885v1.256h.419c.202-.388.536-.721 1.001-1.001.465-.295 1.078-.442 1.838-.442.822 0 1.482.163 1.978.489.496.31.876.721 1.14 1.233h.419c.264-.496.636-.908 1.117-1.233s1.163-.489 2.047-.489c.714 0 1.358.155 1.932.465.589.295 1.055.752 1.396 1.373.357.605.535 1.373.535 2.304v7.585h-2.932v-7.376c0-.636-.163-1.109-.488-1.419-.326-.326-.784-.489-1.373-.489-.667 0-1.187.217-1.559.652-.357.419-.535 1.024-.535 1.815v6.818h-2.932v-7.376c0-.636-.163-1.109-.489-1.419-.326-.326-.783-.489-1.373-.489-.667 0-1.187.217-1.559.652-.357.419-.535 1.024-.535 1.815v6.818h-2.932z"/><path style="fill:var(--color8, #000)" d="M38.781 15.513A15.515 15.515 0 0 0 12.299 4.544a15.515 15.515 0 0 0-4.544 10.969h4.848c1.606 0 2.859-1.346 3.448-2.841a7.757 7.757 0 0 1 14.975 2.841h7.756z"/><path fill="#fbcf8e" style="fill:var(--color11, #fbcf8e)" d="M29.845 21.449a15.503 15.503 0 0 0 1.181-5.936h7.756c0 8.567-6.945 15.513-15.513 15.513-1.342 0-2.644-.17-3.885-.491a15.52 15.52 0 0 0 10.462-9.086z"/><path style="fill:var(--color8, #000)" d="M0 15.513a15.503 15.503 0 0 0 4.544 10.969 15.525 15.525 0 0 0 10.969 4.544 15.503 15.503 0 0 0 10.969-4.544 15.52 15.52 0 0 0 4.544-10.969h-4.848c-1.606 0-2.859 1.346-3.448 2.841l-.051.127a7.759 7.759 0 0 1-7.165 4.787 7.768 7.768 0 0 1-5.484-2.271 7.743 7.743 0 0 1-2.271-5.484H.003z"/><path fill="#73e5e2" style="fill:var(--color12, #73e5e2)" d="M.002 15.513C.002 6.946 6.947 0 15.515 0c1.341 0 2.643.17 3.885.49A15.516 15.516 0 0 0 7.756 15.512H.002z"/></symbol><symbol id="icon-logo_7" viewBox="0 0 131 32"><path fill="#3c2b1f" style="fill:var(--color13, #3c2b1f)" d="M38.461 22.597h9.328v-2.81h-6.013V9.204H38.46v13.393zM53.316 20.724c-1.33 0-2.023-1.161-2.023-2.903s.693-2.922 2.023-2.922 2.042 1.18 2.042 2.922-.712 2.903-2.042 2.903zm.018 2.173c3.091 0 5.114-2.192 5.114-5.076s-2.023-5.076-5.114-5.076c-3.072 0-5.133 2.192-5.133 5.076s2.06 5.076 5.133 5.076zM63.798 25.913c1.424 0 2.679-.318 3.522-1.068.768-.693 1.274-1.742 1.274-3.184v-8.654h-2.922v1.03h-.037c-.562-.805-1.424-1.311-2.697-1.311-2.379 0-4.027 1.986-4.027 4.795 0 2.941 2.004 4.552 4.158 4.552 1.161 0 1.892-.468 2.454-1.105h.075v.955c0 1.161-.543 1.836-1.836 1.836-1.011 0-1.517-.431-1.686-.937h-2.96c.3 2.004 2.042 3.091 4.683 3.091zm-.019-6.107c-1.143 0-1.892-.937-1.892-2.379 0-1.461.749-2.398 1.892-2.398 1.274 0 1.948 1.086 1.948 2.379 0 1.349-.618 2.398-1.948 2.398zM74.602 20.724c-1.33 0-2.023-1.161-2.023-2.903s.693-2.922 2.023-2.922 2.042 1.18 2.042 2.922-.712 2.903-2.042 2.903zm.019 2.173c3.091 0 5.113-2.192 5.113-5.076s-2.023-5.076-5.113-5.076c-3.072 0-5.133 2.192-5.133 5.076s2.061 5.076 5.132 5.076zM80.626 22.597h3.053v-9.591h-3.053v9.591zm0-10.921h3.053V9.203h-3.053v2.473zM85.004 25.763h3.053v-4.158h.037c.599.805 1.48 1.293 2.716 1.293 2.51 0 4.177-1.986 4.177-5.095 0-2.885-1.555-5.076-4.102-5.076-1.311 0-2.248.581-2.903 1.442h-.056v-1.161h-2.922v12.756zm5.02-5.226c-1.311 0-2.061-1.068-2.061-2.622s.674-2.735 2.004-2.735c1.311 0 1.929 1.086 1.929 2.735 0 1.63-.712 2.622-1.873 2.622zM99.959 22.897c2.51 0 4.365-1.086 4.365-3.184 0-2.454-1.986-2.885-3.671-3.166-1.218-.225-2.304-.318-2.304-.993 0-.599.581-.88 1.33-.88.843 0 1.424.262 1.536 1.124h2.81c-.15-1.892-1.611-3.072-4.327-3.072-2.267 0-4.14 1.049-4.14 3.072 0 2.248 1.779 2.697 3.447 2.978 1.274.225 2.435.318 2.435 1.18 0 .618-.581.955-1.499.955-1.011 0-1.648-.468-1.761-1.424h-2.885c.094 2.117 1.854 3.409 4.664 3.409zM108.471 22.878c1.33 0 2.173-.524 2.866-1.461h.056v1.18h2.922v-9.591h-3.053v5.357c0 1.143-.637 1.929-1.686 1.929-.974 0-1.442-.581-1.442-1.63v-5.657h-3.035v6.294c0 2.135 1.161 3.578 3.372 3.578zM115.643 22.597h3.053v-5.376c0-1.143.562-1.948 1.517-1.948.918 0 1.349.599 1.349 1.63v5.694h3.053v-5.376c0-1.143.543-1.948 1.517-1.948.918 0 1.349.599 1.349 1.63v5.694h3.053v-6.238c0-2.154-1.086-3.634-3.259-3.634-1.236 0-2.267.524-3.016 1.686h-.037c-.487-1.03-1.442-1.686-2.697-1.686-1.386 0-2.304.656-2.903 1.648h-.056v-1.367h-2.922v9.591z"/><path fill="#f97316" style="fill:var(--color14, #f97316)" d="M19.832 1.543 16.762.72l-2.587 9.654-2.335-8.716-3.07.823 2.523 9.417-6.285-6.285L2.761 7.86l6.894 6.894-8.585-2.3-.823 3.07 9.38 2.513a6.356 6.356 0 1 1 12.386-.009l8.525 2.284.822-3.07-9.418-2.523 8.586-2.301-.823-3.07-9.417 2.523 6.285-6.285-2.247-2.247-6.798 6.798 2.303-8.596z"/><path fill="#f97316" style="fill:var(--color14, #f97316)" d="M22.005 18.064a6.344 6.344 0 0 1-1.581 2.913l6.176 6.176 2.247-2.247-6.842-6.842zM20.362 21.042a6.355 6.355 0 0 1-2.84 1.679l2.247 8.387 3.07-.823-2.477-9.244zM17.407 22.752a6.384 6.384 0 0 1-3.282-.029l-2.249 8.395 3.07.822 2.462-9.188zM14.016 22.692a6.355 6.355 0 0 1-2.79-1.704l-6.191 6.191 2.247 2.247 6.734-6.734zM11.174 20.933a6.346 6.346 0 0 1-1.542-2.877l-8.553 2.292.823 3.07 9.272-2.484z"/></symbol><symbol id="icon-logo_8" viewBox="0 0 256 32"><path d="M127.483 27.577h-8.623V4.524h8.623v23.053zm-7.781-.842h6.939V5.366h-6.939v21.369zm19.779.842h-8.45V4.524h17.654a10.586 10.586 0 0 1 7.097 2.001 7.757 7.757 0 0 1 2.491 6.429 8.19 8.19 0 0 1-1.834 5.684c-1.544 1.772-4.115 2.685-7.638 2.717-.888.024-7.539 0-9.315 0l-.005 6.223zm-7.612-.842h6.771v-6.232h.423c.086 0 8.721.027 9.72 0 3.283-.029 5.642-.842 7.021-2.43a7.394 7.394 0 0 0 1.617-5.122 6.974 6.974 0 0 0-2.19-5.782 9.813 9.813 0 0 0-6.557-1.805h-16.8l-.005 21.371zm15.028-10.56h-8.315V9.9h8.371a3.555 3.555 0 0 1 3.2 1.224c.351.584.517 1.261.475 1.942a3.576 3.576 0 0 1-.396 1.822 3.647 3.647 0 0 1-3.335 1.28v.007zm-7.473-.842h7.473c1.381 0 2.237-.288 2.616-.881a2.8 2.8 0 0 0 .275-1.386 2.614 2.614 0 0 0-.313-1.445l-.01-.015c-.401-.589-1.197-.864-2.511-.864h-7.528v4.591zm34.218 12.584c-7.562 0-12.076-1.878-13.795-5.74a10.028 10.028 0 0 1-.569-2.314l-.074-.485h8.997l.059.354c.069.359.222.697.445.987.355.429 1.541 1.15 5.475 1.15 4.729 0 4.729-.83 4.729-1.277 0-.753-.547-1.011-4.404-1.421l-.733-.069c-1.452-.136-3.288-.31-4.126-.382-7.074-.64-10.232-2.838-10.232-7.124 0-4.502 5.374-7.411 13.693-7.411 6.786 0 11.158 1.789 12.992 5.32.435.822.728 1.711.864 2.631l.059.473h-9.007l-.037-.381a1.432 1.432 0 0 0-.364-.798c-.337-.451-1.401-1.197-4.706-1.197-4.057 0-4.616.519-4.616 1.078 0 .746 1.282 1.011 5.389 1.45 1.713.14 4.467.423 5.41.537 5.93.643 8.576 2.787 8.576 6.954.002 3.495-2.432 7.665-14.024 7.665zm-13.455-7.696c.084.555.23 1.1.433 1.624 1.566 3.518 5.827 5.231 13.022 5.231 6.016 0 13.189-1.179 13.189-6.823 0-3.693-2.341-5.523-7.83-6.117-.943-.115-3.68-.396-5.389-.537-4.379-.475-6.159-.728-6.159-2.287 0-1.613 1.918-1.92 5.459-1.92 2.797 0 4.605.505 5.371 1.524.209.251.367.541.465.852h7.299a7.571 7.571 0 0 0-.691-1.871c-1.684-3.232-5.799-4.869-12.246-4.869-7.806 0-12.851 2.579-12.851 6.568 0 3.806 2.831 5.686 9.464 6.285.842.072 2.676.246 4.131.384l.738.069c3.582.377 5.162.613 5.162 2.259 0 1.772-2.043 2.119-5.571 2.119-3.264 0-5.325-.49-6.122-1.455a3.115 3.115 0 0 1-.546-1.036h-7.328zm43.48 7.668c-8.792 0-13.642-3.555-13.642-10.013V4.524h8.509v13.352c0 2.215 1.982 3.485 5.437 3.485 3.301 0 5.351-1.325 5.351-3.456V4.524h8.421v14.06c.008 5.913-5.127 9.305-14.08 9.305h.005zm-12.8-22.523v12.51c0 7.98 8.013 9.171 12.8 9.171 4.948 0 13.246-1.1 13.246-8.463V5.366h-6.737v12.539c0 2.611-2.432 4.298-6.193 4.298-3.931 0-6.279-1.617-6.279-4.327V5.366h-6.838zm62.56 22.211h-8.03V17.169l-4.554 10.408h-7.005l-4.507-10.388v10.388h-8.059V4.524h10.6l5.507 12.711 5.773-12.711h10.284l-.01 23.053zm-7.189-.842h6.346V5.366h-8.896l-6.336 13.944-6.04-13.944h-9.206v21.369h6.375V13.137l5.895 13.603h5.895l5.957-13.583.01 13.578zM10.196 4.945h-7.67v22.211H23.72v-5.913H10.196V4.945zm29.006-.505c-9.79 0-14.939 4.64-14.939 11.453 0 7.697 5.405 11.601 14.939 11.601 10.496 0 14.91-4.527 14.91-11.601 0-7.183-4.98-11.456-14.91-11.456v.003zm-.029 5.771c.666-.003 1.333.036 1.994.116l-8.574 8.574a6.793 6.793 0 0 1-.579-2.917c0-3.485 1.755-5.777 7.16-5.777v.003zm.029 11.601a15.83 15.83 0 0 1-1.922-.108l8.589-8.589c.391.903.578 1.88.547 2.863 0 3.39-1.617 5.831-7.215 5.831v.003zm30.107-3.031h7.894a3.602 3.602 0 0 1-.707 1.499 8.181 8.181 0 0 1-5.829 1.811 7.43 7.43 0 0 1-5.856-1.952 6.29 6.29 0 0 1-1.076-3.99 6.143 6.143 0 0 1 1.16-4.158c1.103-1.246 2.971-1.784 5.716-1.784a7.792 7.792 0 0 1 4.952 1.273c.46.366.804.857.99 1.415h7.321a7.528 7.528 0 0 0-.652-2.659c-1.753-3.565-5.829-5.688-12.76-5.688-6.028 0-10.073 1.839-12.308 4.613a11.063 11.063 0 0 0-2.151 6.932 11.675 11.675 0 0 0 2.102 7.133c2.208 2.863 6.141 4.271 10.867 4.271a13.582 13.582 0 0 0 8.827-2.489l.199 2.149h6.082V14H69.309v4.781zm32.032-14.346c-9.789 0-14.939 4.64-14.939 11.453 0 7.697 5.403 11.601 14.939 11.601 10.498 0 14.912-4.527 14.912-11.601 0-7.178-4.98-11.451-14.912-11.451v-.002zm-.027 5.771c.649-.002 1.297.035 1.942.111l-8.541 8.546a6.845 6.845 0 0 1-.561-2.878c-.007-3.485 1.755-5.777 7.16-5.777v-.002zm.027 11.601a15.848 15.848 0 0 1-1.972-.115l8.618-8.62c.405.915.599 1.909.568 2.909.003 3.387-1.607 5.827-7.213 5.827v-.002z"/></symbol></defs></svg>